<?xml version="1.0" encoding="UTF-8" standalone="no"?>
<!DOCTYPE svg PUBLIC "-//W3C//DTD SVG 1.1//EN" "http://www.w3.org/Graphics/SVG/1.1/DTD/svg11.dtd">
<svg version="1.1" xmlns="http://www.w3.org/2000/svg" xmlns:xlink="http://www.w3.org/1999/xlink" preserveAspectRatio="xMidYMid meet" viewBox="0 0 640 640" width="640" height="640"><defs><path d="M100.79 113.07L30.66 150.6L126.29 182.06L98.43 244.99C167.16 201.82 201.5 179.67 201.44 178.53C214.04 191.63 227.95 196.12 229.58 194.33C172.12 246.67 181.52 301.01 178.18 302.78C196.48 291.56 209.09 304.85 210.63 301.26C193.6 339.63 212.86 385.13 211.23 386.92C226.63 350.24 255.74 350.59 255.82 352.3C258.34 478.86 328.99 525.18 330.7 525.1C319.59 470.85 357.76 445.09 357.76 445.09C370.63 536.92 414.05 550.29 415.98 551.91C414.84 524.58 437.75 508.09 437.75 508.09C441.7 555.84 497.49 577.19 497.57 578.9C484.41 553.84 501.83 523.92 500.04 522.29C570.96 537.79 610.35 501.7 611.98 499.91C574.16 496.55 548.88 468.64 547.09 467.01C589.15 451.34 624.72 406.87 624.64 405.17C410.17 394.69 450.7 237.01 450.7 237.01C485.68 228.52 511.77 213.03 528.97 190.54L624.15 175.8C574.5 139.33 549.11 121.12 547.97 121.17C542.39 75.21 491.72 62.61 490.42 62.25C473.4 58.2 449.1 63.33 417.54 77.65L15.25 77.71L100.79 113.07Z" id="a1UOLhACWQ"></path></defs><g><g><g><use xlink:href="#a1UOLhACWQ" opacity="1" fill="#5f3479" fill-opacity="1"></use></g></g></g></svg>